<?xml version="1.0" standalone="no"?>
<!DOCTYPE svg PUBLIC "-//W3C//DTD SVG 20010904//EN"
 "http://www.w3.org/TR/2001/REC-SVG-20010904/DTD/svg10.dtd">
<svg version="1.0" xmlns="http://www.w3.org/2000/svg"
 width="3312.000000pt" height="2872.000000pt" viewBox="0 0 3312.000000 2872.000000"
 preserveAspectRatio="xMidYMid meet">

<g transform="translate(0.000000,2872.000000) scale(0.100000,-0.100000)"
fill="#000000" stroke="none">
<path d="M14905 24864 c-480 -70 -902 -348 -1152 -760 -41 -68 -92 -172 -228
-469 -13 -27 -46 -106 -75 -175 -29 -68 -61 -145 -72 -170 -11 -25 -24 -54
-28 -65 -82 -202 -120 -297 -120 -304 0 -5 -9 -31 -21 -58 -11 -26 -22 -55
-25 -63 -2 -8 -22 -69 -44 -135 -23 -66 -60 -190 -82 -275 -38 -143 -42 -165
-42 -285 0 -123 1 -134 32 -211 59 -147 143 -250 281 -343 154 -102 307 -146
506 -144 106 0 148 5 230 27 203 53 403 178 557 348 46 50 159 175 252 277
276 303 764 780 920 899 l29 22 -32 0 c-17 0 -138 -18 -269 -40 -619 -105
-1150 -259 -1504 -436 -72 -36 -57 -23 112 92 371 253 767 568 1034 825 406
390 586 668 586 909 0 250 -151 432 -422 511 -58 17 -106 22 -233 24 -88 2
-173 1 -190 -1z"/>
<path d="M17580 21454 c-84 -18 -120 -33 -120 -50 0 -7 30 -38 68 -67 139
-113 183 -183 190 -308 9 -147 -44 -288 -193 -517 -182 -279 -270 -437 -340
-606 -20 -49 -39 -96 -41 -105 -33 -135 -38 -219 -16 -297 17 -60 82 -128 155
-163 104 -49 213 -64 427 -58 258 8 492 46 936 151 832 198 1489 197 2080 -4
227 -77 486 -219 617 -339 38 -36 57 -48 57 -37 0 27 -69 206 -102 266 -17 30
-38 69 -47 85 -78 143 -234 304 -406 418 -211 139 -490 245 -955 362 -640 160
-664 175 -1367 814 -249 227 -387 331 -536 402 -146 69 -262 84 -407 53z"/>
<path d="M6033 20391 c-74 -19 -161 -90 -185 -150 -21 -54 -23 -82 -23 -286 0
-187 4 -268 21 -425 14 -133 81 -455 121 -585 208 -668 533 -1194 1049 -1694
l148 -144 -74 42 c-262 148 -677 312 -985 390 -313 78 -696 129 -777 102 -64
-21 -120 -106 -113 -172 7 -65 178 -355 313 -534 140 -184 367 -425 547 -581
549 -477 1296 -831 2115 -1004 79 -17 145 -32 145 -33 1 -1 7 -36 15 -77 84
-493 380 -1102 739 -1520 74 -86 253 -271 258 -266 2 2 -20 39 -50 82 -166
243 -313 568 -347 767 -11 62 -9 184 3 233 34 133 178 224 357 224 119 0 209
-42 307 -142 109 -113 180 -249 358 -693 122 -303 190 -445 257 -532 128 -168
266 -213 448 -148 220 79 365 208 419 371 25 75 30 101 36 189 13 171 18 195
49 221 25 22 26 22 418 17 257 -4 447 -2 548 6 454 34 835 125 1135 271 109
53 260 140 243 140 -3 0 -53 -11 -110 -25 -410 -98 -846 -141 -1328 -132 -389
7 -644 39 -961 118 -780 195 -1371 593 -1805 1214 -138 198 -230 375 -404 775
-88 203 -149 337 -302 670 -258 563 -593 1207 -866 1665 -517 870 -1030 1422
-1496 1609 -93 38 -170 50 -223 37z"/>
<path d="M22661 20282 c-33 -42 -68 -123 -78 -180 -7 -45 -7 -201 1 -274 4
-29 22 -143 41 -253 19 -110 38 -218 41 -240 4 -22 8 -166 8 -320 l1 -280 29
-70 c57 -140 158 -233 300 -278 92 -29 283 -32 332 -5 80 44 72 136 -40 433
-50 133 -57 158 -63 234 -6 73 3 111 39 161 38 54 28 140 -32 285 -39 93 -77
165 -160 300 -93 153 -362 525 -379 525 -5 0 -23 -17 -40 -38z"/>
<path d="M14862 19679 c-66 -13 -144 -52 -184 -92 -35 -34 -70 -110 -82 -172
-30 -168 -125 -322 -308 -501 -115 -113 -212 -191 -454 -364 -343 -246 -395
-319 -275 -379 47 -24 110 -37 275 -56 170 -20 279 -51 422 -119 266 -128 487
-310 979 -806 236 -238 375 -354 500 -416 210 -105 348 -82 515 86 113 112
170 221 212 410 14 61 17 359 5 456 -27 225 -146 625 -251 847 l-32 67 43 0
c107 0 294 56 473 142 108 52 313 165 364 201 l29 20 -124 60 c-688 329 -1310
551 -1717 612 -108 16 -318 18 -390 4z"/>
<path d="M23410 18917 c0 -4 18 -42 39 -85 61 -120 139 -315 177 -447 42 -141
57 -300 33 -357 -19 -47 -72 -119 -107 -145 -105 -77 -285 -82 -499 -14 -334
107 -833 405 -1345 802 -70 55 -129 99 -133 99 -7 0 136 -197 228 -315 420
-533 824 -897 1222 -1100 121 -62 274 -119 351 -131 23 -3 45 -9 51 -13 5 -3
35 -44 68 -91 307 -444 686 -823 1097 -1099 536 -360 1145 -571 1832 -637 240
-23 744 -15 966 15 226 31 495 84 513 101 23 21 -185 359 -361 585 -100 128
-369 401 -492 498 -433 344 -956 586 -1445 671 l-70 12 70 23 c399 132 825
355 1110 582 140 111 312 286 358 366 16 26 -191 122 -368 171 -392 110 -945
172 -1522 172 -368 0 -589 -19 -836 -71 -158 -33 -262 -37 -370 -13 -90 20
-201 71 -280 128 -71 50 -191 170 -238 236 -37 53 -49 67 -49 57z"/>
<path d="M19937 16550 c-225 -21 -411 -41 -414 -44 -4 -3 3 -6 14 -6 11 0 108
-24 214 -54 621 -173 1024 -376 1182 -594 46 -63 79 -155 76 -212 -6 -108 -70
-219 -153 -262 -70 -37 -212 -36 -431 2 -226 39 -391 48 -495 26 -220 -46
-373 -191 -489 -464 -22 -50 -38 -92 -36 -92 2 0 -3 -16 -11 -35 -14 -34 -67
-243 -79 -315 -3 -19 -9 -98 -12 -176 -8 -212 19 -350 118 -602 83 -207 64
-263 -109 -321 -113 -38 -236 -22 -430 58 -54 22 -164 67 -245 100 -312 128
-569 167 -827 126 -245 -40 -543 -160 -591 -238 -24 -40 -24 -40 6 -75 34 -40
112 -75 274 -123 215 -64 317 -100 347 -124 26 -21 27 -25 16 -49 -18 -40
-102 -76 -178 -76 -84 0 -150 21 -290 95 -206 109 -293 127 -389 81 -66 -32
-88 -53 -178 -167 -80 -102 -155 -172 -357 -334 -233 -187 -330 -294 -380
-419 -61 -153 -3 -354 159 -554 28 -34 51 -64 51 -66 0 -7 -299 -132 -444
-186 -77 -29 -203 -81 -280 -116 -700 -320 -1082 -713 -1071 -1099 10 -302
169 -517 423 -571 85 -17 130 -17 217 1 97 21 185 67 259 136 83 77 404 538
511 732 21 38 40 66 42 63 7 -7 -71 -211 -130 -341 -58 -126 -169 -344 -217
-425 -63 -106 -79 -138 -110 -215 -71 -179 -116 -458 -85 -531 84 -201 608
166 1006 706 80 108 179 262 251 389 73 128 246 501 233 501 -3 0 6 25 20 55
13 31 24 59 24 63 1 4 12 43 25 87 13 44 27 94 32 110 4 17 9 36 11 43 1 6 5
18 6 25 10 36 17 65 21 87 3 14 11 61 20 105 20 110 34 230 41 355 4 58 8 119
10 135 2 17 6 62 10 100 4 39 9 79 11 90 2 11 7 34 9 50 3 17 17 68 31 115 64
211 158 311 336 356 69 18 171 20 598 15 234 -3 305 -1 395 13 559 87 965 341
1489 931 189 213 406 451 652 715 545 585 687 761 796 990 61 127 91 254 92
395 1 126 -5 178 -34 290 -102 395 -469 716 -884 774 -119 17 -236 12 -679
-29z"/>
<path d="M18170 16503 c-469 -36 -937 -214 -1315 -498 -265 -200 -453 -403
-674 -730 -152 -225 -248 -343 -431 -526 -177 -177 -317 -294 -500 -418 -173
-118 -214 -135 -87 -38 91 70 275 258 350 357 93 124 128 224 132 378 2 100
-12 164 -58 265 -213 459 -970 598 -2155 397 -233 -40 -270 -51 -315 -96 -83
-83 -72 -237 21 -300 18 -12 109 -48 204 -79 348 -116 627 -245 769 -354 70
-54 123 -114 116 -134 -1 -4 -38 -24 -82 -44 -95 -41 -101 -46 -108 -79 -7
-37 24 -68 95 -94 309 -110 314 -277 17 -478 -374 -252 -1009 -376 -1694 -331
-268 18 -523 18 -595 1 -443 -107 -690 -356 -604 -609 22 -63 65 -126 131
-191 73 -71 119 -92 210 -92 109 0 208 42 386 167 233 162 340 230 413 265
306 143 530 62 764 -277 40 -59 94 -125 120 -149 215 -192 531 -185 1015 23
155 67 492 240 819 421 748 412 1107 575 1491 675 279 73 409 81 930 59 711
-30 984 67 1120 397 15 35 28 71 30 79 2 8 18 62 35 120 17 58 33 113 36 123
45 186 104 373 131 417 44 71 96 128 167 181 141 108 272 163 622 264 321 93
388 128 388 200 0 65 -92 150 -301 275 -147 88 -465 248 -593 298 -320 124
-678 180 -1000 155z"/>
<path d="M9820 12940 c5 -10 51 -74 102 -142 99 -133 311 -353 444 -459 522
-417 1241 -721 2149 -909 862 -178 1935 -228 2656 -124 127 18 304 61 392 94
66 25 127 77 127 110 0 13 -23 46 -60 84 -33 34 -69 84 -81 110 -56 127 -3
321 152 556 181 276 242 377 256 434 37 142 -17 211 -189 243 -142 26 -547 5
-823 -43 -291 -50 -488 -124 -804 -303 -311 -177 -509 -261 -776 -327 -235
-59 -411 -57 -533 5 -21 11 -80 51 -132 90 -224 168 -418 218 -747 192 -143
-11 -254 -26 -508 -70 -459 -79 -838 -44 -1163 105 -151 69 -331 206 -417 315
-47 60 -64 75 -45 39z"/>
<path d="M13307 8055 c-313 -59 -478 -281 -494 -661 -16 -377 101 -605 498
-967 234 -214 337 -349 375 -492 19 -68 18 -219 -1 -283 -52 -174 -339 -193
-424 -27 -24 46 -26 61 -30 212 l-3 163 -215 0 -215 0 5 -192 c4 -159 9 -206
27 -268 51 -174 153 -306 291 -374 120 -58 182 -71 359 -71 132 0 167 4 235
23 234 67 374 225 427 479 17 83 19 123 15 258 -6 187 -17 237 -87 381 -64
133 -145 238 -288 376 -284 275 -361 356 -410 431 -84 128 -96 170 -97 322 0
145 13 186 75 238 79 67 221 62 300 -9 50 -46 67 -100 76 -241 l7 -113 215 0
215 0 -6 138 c-7 163 -30 263 -87 379 -71 145 -197 244 -365 289 -86 22 -300
27 -398 9z"/>
<path d="M18178 8055 c-202 -38 -344 -143 -428 -316 -78 -161 -75 -119 -75
-1159 0 -1048 -3 -1002 81 -1169 76 -152 206 -254 380 -298 97 -24 344 -24
434 0 179 48 310 150 382 297 79 162 88 248 88 852 l0 488 -325 0 -325 0 0
-210 0 -210 106 0 105 0 -3 -332 -3 -333 -25 -45 c-44 -77 -127 -117 -231
-107 -65 6 -128 35 -158 73 -52 66 -52 62 -49 1015 l3 885 26 49 c18 35 39 59
74 80 43 27 57 30 130 30 73 0 87 -3 130 -30 35 -21 56 -45 74 -80 25 -48 26
-56 29 -267 l3 -218 220 0 219 0 0 163 c0 89 -5 203 -10 252 -35 310 -192 511
-455 581 -85 22 -300 27 -397 9z"/>
<path d="M24088 8055 c-251 -48 -406 -189 -485 -440 l-28 -90 0 -945 0 -945
28 -90 c73 -233 219 -376 442 -432 98 -24 342 -24 440 0 178 45 316 152 393
305 80 160 77 119 77 1162 0 1043 3 1002 -77 1162 -76 151 -216 261 -388 303
-93 23 -306 28 -402 10z m299 -433 c52 -27 79 -61 98 -125 22 -76 22 -1758 0
-1834 -31 -105 -95 -148 -221 -148 -72 0 -86 3 -129 30 -35 21 -56 45 -74 80
l-26 49 0 906 0 905 23 47 c40 82 116 121 222 115 40 -3 81 -12 107 -25z"/>
<path d="M7060 6581 l0 -1461 230 0 230 0 0 549 0 548 193 6 c132 3 211 10
252 21 271 74 411 256 445 577 13 121 13 497 0 618 -34 318 -165 492 -432 573
-69 20 -95 22 -495 26 l-423 4 0 -1461z m798 1010 c32 -19 49 -39 70 -80 l27
-56 0 -325 0 -325 -27 -56 c-21 -41 -38 -61 -70 -80 -39 -22 -56 -24 -190 -27
l-148 -4 0 492 0 492 148 -4 c134 -3 151 -5 190 -27z"/>
<path d="M8990 6581 l0 -1461 230 0 230 0 0 596 0 596 128 -4 c180 -6 243 -39
294 -152 22 -50 23 -62 29 -476 5 -359 9 -435 24 -492 l17 -68 235 0 c220 0
235 1 228 18 -32 83 -37 148 -44 567 -8 395 -10 437 -30 510 -41 154 -108 250
-213 305 -27 14 -48 27 -48 30 0 3 16 14 36 25 100 54 193 190 231 340 26 105
26 565 0 680 -52 226 -175 357 -394 417 -73 20 -105 22 -515 26 l-438 3 0
-1460z m755 1028 c61 -17 95 -47 124 -108 l26 -56 0 -265 0 -265 -27 -55 c-48
-97 -125 -130 -305 -130 l-113 0 0 445 0 445 128 0 c70 0 145 -5 167 -11z"/>
<path d="M11000 6580 l0 -1460 625 0 625 0 0 210 0 210 -395 0 -395 0 0 425 0
425 315 0 315 0 0 210 0 210 -315 0 -315 0 0 405 0 405 395 0 395 0 0 210 0
210 -625 0 -625 0 0 -1460z"/>
<path d="M14630 7830 l0 -210 240 0 240 0 0 -1250 0 -1250 230 0 230 0 0 1250
0 1250 240 0 240 0 0 210 0 210 -710 0 -710 0 0 -210z"/>
<path d="M16590 6580 l0 -1460 230 0 230 0 0 1460 0 1460 -230 0 -230 0 0
-1460z"/>
<path d="M19680 6580 l0 -1460 625 0 625 0 0 210 0 210 -395 0 -395 0 0 425 0
425 315 0 315 0 0 210 0 210 -315 0 -315 0 0 405 0 405 395 0 395 0 0 210 0
210 -625 0 -625 0 0 -1460z"/>
<path d="M21540 6580 l0 -1460 225 0 225 0 0 446 0 445 72 134 c40 74 75 132
79 127 3 -4 105 -265 225 -579 l219 -573 232 0 c128 0 233 2 233 4 0 2 -140
359 -311 792 -172 434 -314 798 -316 809 -3 13 115 263 311 664 174 355 316
646 316 648 0 2 -102 3 -227 3 l-228 -1 -295 -629 c-162 -346 -298 -629 -302
-630 -5 0 -8 284 -8 630 l0 630 -225 0 -225 0 0 -1460z"/>
<path d="M25590 6580 l0 -1460 230 0 230 0 0 1460 0 1460 -230 0 -230 0 0
-1460z"/>
<path d="M23080 4921 c-84 -27 -131 -75 -155 -153 -12 -42 -15 -117 -15 -398
0 -378 5 -419 57 -480 47 -56 97 -75 198 -75 121 0 181 32 228 120 18 33 22
62 25 168 l4 127 -81 0 -81 0 0 -95 c0 -104 -10 -137 -47 -154 -38 -17 -69
-13 -100 13 l-28 24 0 352 0 352 28 24 c31 26 62 30 100 13 36 -16 47 -50 47
-139 l0 -80 81 0 81 0 -4 113 c-5 147 -33 203 -123 250 -44 22 -170 33 -215
18z"/>
<path d="M24907 4914 c-65 -20 -122 -78 -141 -145 -13 -43 -16 -115 -16 -399
0 -284 3 -356 16 -399 32 -109 135 -169 273 -159 100 7 163 45 204 123 21 39
22 50 22 435 0 430 1 423 -59 488 -57 63 -196 89 -299 56z m146 -155 c45 -20
47 -41 47 -389 0 -220 -4 -337 -11 -353 -23 -50 -91 -61 -136 -23 l-28 24 0
352 0 352 28 24 c31 26 62 30 100 13z"/>
<path d="M21540 4911 c0 -5 -38 -248 -85 -540 -47 -292 -85 -535 -85 -541 0
-6 32 -10 78 -10 l79 0 14 98 14 97 106 3 107 3 12 -88 c6 -48 13 -94 15 -100
3 -9 30 -13 90 -13 47 0 85 3 85 6 0 4 -38 246 -85 539 -47 293 -85 538 -85
544 0 7 -42 11 -130 11 -71 0 -130 -4 -130 -9z m200 -723 c0 -16 -10 -18 -80
-18 -44 0 -80 3 -80 8 0 16 70 478 76 502 5 16 21 -67 45 -225 21 -137 38
-258 39 -267z"/>
<path d="M22162 4463 c4 -512 4 -513 76 -586 48 -49 120 -71 211 -65 119 9
197 72 220 179 7 31 11 215 11 489 l0 440 -80 0 -79 0 -3 -451 -3 -451 -29
-25 c-25 -21 -37 -24 -70 -20 -79 11 -76 -9 -76 498 l0 449 -91 0 -90 0 3
-457z"/>
<path d="M23600 4840 l0 -80 90 0 90 0 0 -470 0 -470 90 0 90 0 0 470 0 470
90 0 90 0 0 80 0 80 -270 0 -270 0 0 -80z"/>
<path d="M24340 4370 l0 -550 90 0 90 0 0 550 0 550 -90 0 -90 0 0 -550z"/>
<path d="M25510 4370 l0 -550 80 0 80 0 2 383 3 382 94 -350 c52 -192 98 -365
103 -382 l9 -33 89 0 90 0 0 550 0 550 -80 0 -80 0 -1 -312 -1 -313 -58 215
c-33 118 -71 259 -86 313 l-26 97 -109 0 -109 0 0 -550z"/>
</g>
</svg>
